<!-- Generated by IcoMoon.io -->
<svg version="1.1" xmlns="http://www.w3.org/2000/svg" width="1024" height="1024" viewBox="0 0 1024 1024">
<title></title>
<g id="icomoon-ignore">
</g>
<path d="M512 0c-215.808 0-448 65.056-448 208v608c0 142.88 232.192 208 448 208 215.776 0 448-65.12 448-208v-608c0-142.944-232.256-208-448-208zM896 816c0 79.488-171.936 144-384 144-212.096 0-384-64.512-384-144v-119.552c66.112 68.128 225.6 103.552 384 103.552s317.888-35.424 384-103.552v119.552zM896 624h-0.128c0 0.32 0.128 0.672 0.128 0.992 0 79.008-171.936 143.008-384 143.008s-384-64-384-143.008c0-0.32 0.128-0.672 0.128-0.992h-0.128v-119.552c66.112 68.128 225.6 103.552 384 103.552s317.888-35.424 384-103.552v119.552zM896 432h-0.128c0 0.32 0.128 0.672 0.128 0.992 0 79.008-171.936 143.008-384 143.008s-384-64-384-143.008c0-0.32 0.128-0.672 0.128-0.992h-0.128v-109.952c83.872 63.904 237.6 93.952 384 93.952s300.128-30.048 384-93.952v109.952zM512 352c-212.096 0-384-64.512-384-144 0-79.552 171.904-144 384-144 212.064 0 384 64.448 384 144 0 79.488-171.936 144-384 144zM768 832c0-17.673 14.327-32 32-32s32 14.327 32 32c0 17.673-14.327 32-32 32s-32-14.327-32-32zM768 640c0-17.673 14.327-32 32-32s32 14.327 32 32c0 17.673-14.327 32-32 32s-32-14.327-32-32zM768 448c0-17.673 14.327-32 32-32s32 14.327 32 32c0 17.673-14.327 32-32 32s-32-14.327-32-32z"></path>
</svg>
